<mxfile host="app.diagrams.net" modified="2022-11-16T16:02:48.138Z" agent="5.0 (Macintosh)" etag="35idccCS8yUdiHVAm-z1" version="20.5.3" type="github">
  <diagram id="LRVJ_gA-ECyoLNhpazRZ" name="Page-1">
    <mxGraphModel dx="1165" dy="518" grid="0" gridSize="10" guides="1" tooltips="1" connect="1" arrows="1" fold="1" page="1" pageScale="1" pageWidth="850" pageHeight="1100" math="0" shadow="0">
      <root>
        <mxCell id="0" />
        <mxCell id="1" parent="0" />
        <mxCell id="CMAZQQ37q_4PknUMhfWO-9" value="&lt;ul&gt;&lt;li class=&quot;lh-copy f4 mv1 measure-wide&quot;&gt;ImagePullBackoff&lt;/li&gt;&lt;li class=&quot;lh-copy f4 mv1 measure-wide&quot;&gt;ImageInspectError&lt;/li&gt;&lt;li class=&quot;lh-copy f4 mv1 measure-wide&quot;&gt;ErrImagePull&lt;/li&gt;&lt;li class=&quot;lh-copy f4 mv1 measure-wide&quot;&gt;ErrImageNeverPull&lt;/li&gt;&lt;li class=&quot;lh-copy f4 mv1 measure-wide&quot;&gt;RegistryUnavailable&lt;/li&gt;&lt;li class=&quot;lh-copy f4 mv1 measure-wide&quot;&gt;InvalidImageName&lt;/li&gt;&lt;/ul&gt;" style="text;whiteSpace=wrap;html=1;fontSize=24;" parent="1" vertex="1">
          <mxGeometry x="74" y="81" width="281" height="261" as="geometry" />
        </mxCell>
        <mxCell id="CMAZQQ37q_4PknUMhfWO-10" value="&lt;ul&gt;&lt;li class=&quot;lh-copy f4 mv1 measure-wide&quot;&gt;CrashLoopBackOff&lt;/li&gt;&lt;li class=&quot;lh-copy f4 mv1 measure-wide&quot;&gt;RunContainerError&lt;/li&gt;&lt;li class=&quot;lh-copy f4 mv1 measure-wide&quot;&gt;KillContainerError&lt;/li&gt;&lt;li class=&quot;lh-copy f4 mv1 measure-wide&quot;&gt;VerifyNonRootError&lt;/li&gt;&lt;li class=&quot;lh-copy f4 mv1 measure-wide&quot;&gt;RunInitContainerError&lt;/li&gt;&lt;li class=&quot;lh-copy f4 mv1 measure-wide&quot;&gt;CreatePodSandboxError&lt;/li&gt;&lt;li class=&quot;lh-copy f4 mv1 measure-wide&quot;&gt;ConfigPodSandboxError&lt;/li&gt;&lt;li class=&quot;lh-copy f4 mv1 measure-wide&quot;&gt;KillPodSandboxError&lt;/li&gt;&lt;li class=&quot;lh-copy f4 mv1 measure-wide&quot;&gt;SetupNetworkError&lt;/li&gt;&lt;li class=&quot;lh-copy f4 mv1 measure-wide&quot;&gt;TeardownNetworkError&lt;/li&gt;&lt;/ul&gt;" style="text;whiteSpace=wrap;html=1;fontSize=24;" parent="1" vertex="1">
          <mxGeometry x="435" y="217" width="331" height="388" as="geometry" />
        </mxCell>
        <mxCell id="fPSSwuTNx_uVup1d7s4r-1" value="&lt;h3 id=&quot;imagepullbackoff&quot; class=&quot;f3 pt3&quot;&gt;ImagePullBackOff&lt;/h3&gt;&lt;p class=&quot;lh-copy measure-wide f4&quot;&gt;This error appears when Kubernetes isn&#39;t able to retrieve the image for one of the containers of the Pod.&lt;/p&gt;&lt;p class=&quot;lh-copy measure-wide f4&quot;&gt;There are three common culprits:&lt;/p&gt;&lt;ol&gt;&lt;li class=&quot;lh-copy f4 mv1 measure-wide&quot;&gt;The image name is invalid â€” as an example, you misspelt the name, or the image does not exist.&lt;/li&gt;&lt;li class=&quot;lh-copy f4 mv1 measure-wide&quot;&gt;You specified a non-existing tag for the image.&lt;/li&gt;&lt;li class=&quot;lh-copy f4 mv1 measure-wide&quot;&gt;The image that you&#39;re trying to retrieve belongs to a private registry, and Kubernetes doesn&#39;t have credentials to access it.&lt;/li&gt;&lt;/ol&gt;&lt;p class=&quot;lh-copy measure-wide f4&quot;&gt;The first two cases can be solved by correcting the image name and tag.&lt;/p&gt;&lt;p class=&quot;lh-copy measure-wide f4&quot;&gt;For the last, you should add the credentials to your private registry in a Secret and reference it in your Pods.&lt;/p&gt;" style="text;whiteSpace=wrap;html=1;fontSize=24;" vertex="1" parent="1">
          <mxGeometry x="50" y="627" width="751" height="721" as="geometry" />
        </mxCell>
      </root>
    </mxGraphModel>
  </diagram>
</mxfile>
